<?xml version="1.0" standalone="no"?>
<!DOCTYPE svg PUBLIC "-//W3C//DTD SVG 20010904//EN"
 "http://www.w3.org/TR/2001/REC-SVG-20010904/DTD/svg10.dtd">
<svg version="1.0" xmlns="http://www.w3.org/2000/svg"
 width="300.000000pt" height="96.000000pt" viewBox="0 0 300.000000 96.000000"
 preserveAspectRatio="xMidYMid meet">
<metadata>
Created by potrace 1.10, written by Peter Selinger 2001-2011
</metadata>
<g transform="translate(0.000000,96.000000) scale(0.100000,-0.100000)"
fill="#000000" stroke="none">
<path d="M20 779 l0 -161 114 4 c97 2 119 6 143 24 49 36 63 77 63 192 l0 102
-160 0 -160 0 0 -161z m295 44 c0 -77 -4 -96 -21 -120 -35 -48 -79 -64 -169
-61 l-80 3 -3 124 c-2 68 -1 130 2 137 5 12 31 14 138 12 l133 -3 0 -92z"/>
<path d="M370 839 c0 -120 14 -160 69 -196 30 -20 46 -23 142 -23 l109 0 0 30
c0 48 -38 135 -79 182 -49 55 -125 97 -191 105 l-50 6 0 -104z m134 46 c58
-28 123 -105 141 -170 22 -73 16 -78 -93 -72 -92 5 -111 15 -143 79 -19 38
-27 166 -11 182 10 11 64 1 106 -19z"/>
<path d="M1690 488 l0 -388 35 0 35 0 0 384 0 384 -35 4 -35 4 0 -388z"/>
<path d="M1195 485 l0 -385 35 0 35 0 0 176 0 177 148 -2 147 -2 0 35 0 36
-150 0 -150 0 0 145 0 145 185 0 185 0 0 30 0 30 -217 0 -218 0 0 -385z"/>
<path d="M1901 638 c-72 -49 -76 -61 -79 -248 -3 -153 -1 -172 17 -208 34 -67
72 -87 166 -87 68 0 85 3 114 24 59 42 71 85 71 259 0 169 -7 197 -59 247 -30
27 -39 30 -114 33 -73 3 -86 1 -116 -20z m172 -50 c44 -23 46 -36 47 -211 l0
-169 -30 -30 c-29 -29 -34 -30 -92 -26 -51 4 -65 9 -85 32 -22 26 -23 33 -23
196 l0 168 31 26 c24 20 41 26 80 26 28 0 60 -5 72 -12z"/>
<path d="M758 637 c6 -6 42 -68 80 -136 l70 -124 -31 -56 c-17 -31 -52 -93
-78 -138 l-47 -83 36 0 c36 0 38 2 90 95 28 53 52 100 52 105 0 27 20 1 73
-95 57 -102 60 -105 93 -105 19 0 34 2 34 4 0 2 -22 41 -48 87 -27 46 -61 107
-76 136 l-28 51 52 94 c29 51 64 112 77 136 l25 42 -36 0 c-34 0 -37 -2 -94
-106 l-60 -105 -58 105 -59 106 -39 0 c-30 0 -36 -3 -28 -13z"/>
<path d="M2355 376 c78 -238 93 -275 110 -276 21 0 16 -13 121 335 18 61 33
103 33 95 1 -8 29 -108 63 -222 55 -181 66 -208 83 -208 17 1 32 38 110 276
l91 275 -34 -3 -34 -3 -64 -203 c-35 -112 -64 -211 -65 -220 0 -10 -11 19 -23
63 -12 44 -42 144 -66 223 -38 124 -46 142 -65 142 -19 0 -27 -18 -65 -142
-24 -79 -54 -179 -66 -223 -12 -44 -23 -73 -23 -65 -1 9 -30 108 -65 220 l-64
205 -34 3 -34 3 91 -275z"/>
<path d="M558 591 c-100 -6 -109 -8 -137 -35 -46 -44 -54 -73 -49 -193 3 -82
9 -119 25 -154 44 -98 141 -171 246 -185 l47 -7 0 127 0 126 -117 -1 c-75 0
-111 -4 -98 -9 11 -5 52 -9 92 -9 97 -1 105 -9 101 -114 l-3 -82 -29 -2 c-32
-2 -86 22 -99 44 -5 7 -12 11 -16 9 -4 -3 -26 15 -49 39 -60 65 -86 151 -79
261 5 85 6 88 43 123 25 23 50 38 69 39 17 2 37 3 45 4 8 1 36 0 63 0 47 -2
47 -2 47 -37 0 -19 -4 -35 -10 -35 -5 0 -10 -7 -10 -15 0 -18 -60 -118 -67
-111 -3 3 -16 -6 -29 -19 -13 -13 -33 -26 -44 -30 -11 -3 -20 -11 -20 -16 0
-5 -7 -9 -15 -9 -8 0 -15 -4 -15 -9 0 -6 12 -6 30 -1 80 23 157 99 190 187 23
61 27 124 8 121 -7 -1 -61 -4 -120 -7z"/>
<path d="M22 418 c3 -170 3 -174 33 -227 16 -29 49 -70 73 -92 47 -41 134 -79
182 -79 l30 0 0 230 c0 249 -2 261 -55 310 -25 23 -35 25 -147 28 l-120 4 4
-174z m209 141 c43 -22 68 -54 78 -100 13 -60 9 -385 -5 -399 -15 -15 -77 -3
-101 20 -11 10 -29 21 -41 24 -12 4 -22 13 -22 19 0 7 -9 19 -20 27 -11 8 -20
20 -20 27 0 7 -4 13 -8 13 -5 0 -17 17 -27 38 -13 27 -19 68 -23 155 -5 146 1
185 31 189 46 6 136 -1 158 -13z"/>
<path d="M147 522 c-32 -36 -12 -91 34 -92 21 0 49 32 49 57 0 23 -29 53 -52
53 -8 0 -22 -8 -31 -18z m62 -21 c13 -24 -8 -55 -35 -49 -20 3 -30 29 -20 54
8 20 43 17 55 -5z"/>
</g>
</svg>
